<svg fill="none" xmlns="http://www.w3.org/2000/svg" viewBox="0 0 112 30">
  <path fill-rule="evenodd" clip-rule="evenodd" d="M0 20V10a5 5 0 0 1 7.5-4.331A4.977 4.977 0 0 1 10 5h5a5 5 0 0 1 0 10h-5v5a5 5 0 0 1-10 0Z" fill="#fff"/>
  <path fill-rule="evenodd" clip-rule="evenodd" d="M20 10a2 2 0 0 1 2-2h6c.721 0 1.354.382 1.705.955A8.212 8.212 0 0 1 34 7.75c1.573 0 3.044.44 4.295 1.205A2 2 0 0 1 40 8h2a2 2 0 0 1 1.897 1.368L45 12.675l1.103-3.307A2 2 0 0 1 48 8h2a2 2 0 0 1 1.897 1.368L53 12.675l1.103-3.307A2 2 0 0 1 56 8h4a2 2 0 0 1 1.828 1.188L64 14.076l2.172-4.888A2 2 0 0 1 68 8h2a2 2 0 0 1 1.832 2.802l-7 16A2 2 0 0 1 63 28h-2a2 2 0 0 1-1.828-2.812l1.643-3.697-2.568-5.907-2.35 7.049A2 2 0 0 1 54 24h-2a2 2 0 0 1-1.897-1.367L49 19.325l-1.103 3.308A2 2 0 0 1 46 24h-2a2 2 0 0 1-1.897-1.367l-.88-2.642A8.253 8.253 0 0 1 26 18.024V22a2 2 0 0 1-2.001 2h-2a2 2 0 0 1-2-2V10Z" fill="#fff"/>
  <path fill-rule="evenodd" clip-rule="evenodd" d="M34 9.75a6.25 6.25 0 1 1 0 12.5 6.25 6.25 0 0 1 0-12.5Zm0 2a4.25 4.25 0 1 0 0 8.5 4.25 4.25 0 0 0 0-8.5ZM22 22V10h6v2h-4v10h-2Zm24 0 3-9 3 9h2l4-12 5 11.5-2 4.5h2l7-16h-2l-4 9-4-9h-4l-3 9-3-9h-2l-3 9-3-9h-2l4 12h2Z" fill="#000"/>
  <path fill-rule="evenodd" clip-rule="evenodd" d="M2 10v10a3 3 0 1 0 6 0v-7h7a3 3 0 1 0 0-6h-5a2.997 2.997 0 0 0-2.5 1.341A3 3 0 0 0 2 10Zm10-2h-2a2 2 0 0 0-1.995 1.85L8 10v2h4V8Zm-5 4v-2a2 2 0 0 0-1.85-1.995L5 8a2 2 0 0 0-1.995 1.85L3 10v2h4Zm0 1H3v4h4v-4Zm-4 5v2a2 2 0 0 0 1.85 1.994L5 22a2 2 0 0 0 1.995-1.85L7 20v-2H3ZM13.001 8H15l.15.005A2 2 0 0 1 17 10l-.006.15A2 2 0 0 1 15 12h-1.999V8Z" fill="#4200FF"/>
  <path fill-rule="evenodd" clip-rule="evenodd" d="M73.25 9.85a2 2 0 0 1 2-2h1.825c.377 0 .73.104 1.031.286A5.3 5.3 0 0 1 80.4 7.6c.633 0 1.299.07 1.916.298.137.05.266.115.385.191.283-.152.606-.239.95-.239h1.825a2 2 0 0 1 2 2v6.75c0 .77.202 1.196.448 1.473.225.238.526.402 1.102.402.482 0 .904-.108 1.298-.32.24-.139.428-.294.579-.466l.023-7.845a2 2 0 0 1 2-1.994h1.825c.695 0 1.307.354 1.665.892.359-.538.971-.892 1.666-.892h1.825c.441 0 .848.143 1.179.384a7.54 7.54 0 0 1 3.071-.634c1.304 0 2.54.296 3.64.952 1.097.637 1.938 1.555 2.516 2.69.585 1.144.844 2.416.844 3.758v7a2 2 0 0 1-2 2h-1.825a2 2 0 0 1-2-2v-6.75c0-.78-.207-1.187-.441-1.44l-.016-.016c-.229-.254-.526-.419-1.093-.419-.462 0-.895.106-1.323.334a2.072 2.072 0 0 0-.552.43V22a2 2 0 0 1-2 2h-1.825a1.998 1.998 0 0 1-1.666-.892c-.358.538-.97.892-1.665.892H92.9c-.441 0-.848-.143-1.179-.384a7.543 7.543 0 0 1-3.071.634c-1.296 0-2.527-.284-3.626-.918l-.028-.017a6.597 6.597 0 0 1-2.503-2.706c-.584-1.145-.843-2.417-.843-3.759V13.5a2 2 0 0 1-.703-.118c-.18-.065-.4-.107-.673-.107-.006 0-.179 0-.554.271a2.529 2.529 0 0 0-.646.639V22a2 2 0 0 1-2 2H75.25a2 2 0 0 1-2-2V9.85Z" fill="#fff"/>
  <path d="M75.25 9.85h1.825v1.925A4.05 4.05 0 0 1 78.5 10.2c.633-.4 1.267-.6 1.9-.6.5 0 .908.058 1.225.175V11.5a3.957 3.957 0 0 0-1.35-.225c-.55 0-1.125.217-1.725.65-.6.417-1.092.983-1.475 1.7V22H75.25V9.85ZM92.9 20.075c-.4.667-.983 1.2-1.75 1.6-.766.383-1.6.575-2.5.575-1 0-1.874-.217-2.624-.65a4.598 4.598 0 0 1-1.75-1.9c-.417-.817-.625-1.767-.625-2.85v-7h1.825v6.75c0 1.167.325 2.108.975 2.825.65.7 1.508 1.05 2.575 1.05.817 0 1.575-.192 2.275-.575.7-.4 1.233-.933 1.6-1.6l.025-8.45h1.825V22H92.9v-1.925ZM99.907 11.75c.4-.667.983-1.192 1.75-1.575a5.513 5.513 0 0 1 2.5-.575c1 0 1.875.225 2.625.675.75.433 1.333 1.058 1.75 1.875.417.817.625 1.767.625 2.85v7h-1.825v-6.75c0-1.167-.325-2.1-.975-2.8-.65-.717-1.508-1.075-2.575-1.075-.8 0-1.558.192-2.275.575a3.94 3.94 0 0 0-1.6 1.575V22h-1.825V9.85h1.825v1.9Z" fill="#4200FF"/>
</svg>
